/* XPM */
static char *_207d83ecb7c40d8b6b20655c2b3836fTmvP4ZCxlX9EuiSW[] = {
/* columns rows colors chars-per-pixel */
"32 32 11 1 ",
"  c None",
". c #25131A",
"X c #E84444",
"o c #E1A171",
"O c #2A5A39",
"+ c #1F3736",
"@ c #9B4C51",
"# c #3D253B",
"$ c #523B40",
"% c #CAE6F5",
"& c white",
/* pixels */
"                ....            ",
"               .XXXX.           ",
"              .XXXXX.           ",
"              .XXooo.           ",
"              .XXooo.           ",
"              .XoooX.           ",
"             .OooXXXO.          ",
"             .OOOXXXO.          ",
"            .OOOOOXXO.          ",
"            .OOOOOOOO.          ",
"            .OOOOOOOO.          ",
"            .OOOOOOOO.          ",
"            .OOOOOOOO.          ",
"            .OOOOOOO.           ",
"            .OOOOOOO.           ",
"            .OOOOOOO+.          ",
"            .OOOOOOO+.          ",
"           .@@@@@@OOoo.         ",
"           .@@@@@@@Oo##.        ",
"           .@@@@@@$$$%%.        ",
"           .@@@...$$$##.        ",
"           .@@@. .$$$##.        ",
"          .@@@@. .$$$%%.        ",
"          .@@@.   .$$%.         ",
"          .@@@.   .$$%.         ",
"          .@@@.   .$$$$.        ",
"         .@@@.     .$$$.        ",
"         .@@@.     .$$$.        ",
"        .@@@.      .$$$.        ",
"        .@@@.       .$$.        ",
"       .##@.        .##.        ",
"       .##.         .##.        "
};
