/* XPM */
static char *result[] = {
/* columns rows colors chars-per-pixel */
"32 32 11 1 ",
"  c #25131A",
". c #1F3736",
"X c #3D253B",
"o c #2A5A39",
"O c #523B40",
"+ c #9B4C51",
"@ c #BF704D",
"# c #E84444",
"$ c #E1A171",
"% c #CAE6F5",
"& c None",
/* pixels */
"&&&&&&&&&&&&&&&&    &&&&&&&&&&&&",
"&&&&&&&&&&&&&&& #### &&&&&&&&&&&",
"&&&&&&&&&&&&&& ##### &&&&&&&&&&&",
"&&&&&&&&&&&&&& ##$$$ &&&&&&&&&&&",
"&&&&&&&&&&&&&& ##$$$ &&&&&&&&&&&",
"&&&&&&&&&&&&&& #$$$# &&&&&&&&&&&",
"&&&&&&&&&&&&& o$$###o &&&&&&&&&&",
"&&&&&&&&&&&& oooo###o &&&&&&&&&&",
"&&&&&&&&&&&& ooooo##o &&&&&&&&&&",
"&&&&&&&&&&& ooooooooo &&&&&&&&&&",
"&&&&&&&&&&& ooooooooo &&&&&&&&&&",
"&&&&&&&&&&& ooooooooo &&&&&&&&&&",
"&&&&&&&&&&& ooooooooo &&&&&&&&&&",
"&&&&&&&&&&&& ooooooo. &&&&&&&&&&",
"&&&&&&&&&&&& ooooooo. &&&&&&&&&&",
"&&&&&&&&&&&& ooooooo.. &&&&&&&&&",
"&&&&&&&&&&&& ooooooo.. &&&&&&&&&",
"&&&&&&&&&&&& +++oooOO@ &&&&&&&&&",
"&&&&&&&&&&&& +++%%$XX@ &&&&&&&&&",
"&&&&&&&&&&&& +++XX$$X &&&&&&&&&&",
"&&&&&&&&&&&&& ++XX%OO &&&&&&&&&&",
"&&&&&&&&&&&&&& +%%%OOO &&&&&&&&&",
"&&&&&&&&&&&&&&& %%%OOO &&&&&&&&&",
"&&&&&&&&&&&&&&& %%+OOOO &&&&&&&&",
"&&&&&&&&&&&&&&& %%+ OOO &&&&&&&&",
"&&&&&&&&&&&&&&& +%+ OOO &&&&&&&&",
"&&&&&&&&&&&&&& ++++ OOO &&&&&&&&",
"&&&&&&&&&&&&&& ++++OOO &&&&&&&&&",
"&&&&&&&&&&&&&& +++ XXO &&&&&&&&&",
"&&&&&&&&&&&&&& +++ XX &&&&&&&&&&",
"&&&&&&&&&&&&& +++    &&&&&&&&&&&",
"&&&&&&&&&&&&& +++ &&&&&&&&&&&&&&"
};
