/* XPM */
static char *result[] = {
/* columns rows colors chars-per-pixel */
"32 32 4 1 ",
"  c #86C06C",
". c #E0F8CF",
"X c #306850",
"o c white",
/* pixels */
"                                ",
"                             .  ",
"   .       .         .      .X. ",
"  .X.     .X.       .X.     X.  ",
"  X.      X.        X.    X  XX ",
"   XX      XX        XX  X X X  ",
"   X       X         X     X    ",
"                                ",
"                 .              ",
"  .             .X.       .     ",
" .X.            X.       . .    ",
" X.   .    .     XX  .    .     ",
"  XX .X.  .X.    X  .X.      X  ",
"  X  X.   X.        X.      X X ",
"      XX   XX        XX       X ",
"      X    X         X          ",
"                                ",
"   .      .          .       .  ",
"  .X.    . .        . .     . . ",
" . .  .   .          .       .  ",
".X.XX.X.                        ",
"X. X X.          .         X    ",
" X X  XX        . .      X X X  ",
" X    X          .              ",
"                                ",
"                     .       X  ",
"  X               .   .   X   X ",
" X X        .                   ",
"   X  X    . .   . .     X X    ",
"     X X    .    ...     XXX    ",
"     X           ..      XX     ",
"                                "
};
