/* XPM */
static char *result[] = {
/* columns rows colors chars-per-pixel */
"32 32 5 1 ",
"  c #86C06C",
". c #071821",
"X c #306850",
"o c #E0F8CF",
"O c white",
/* pixels */
" .............................. ",
".XXXXXXXXXXXXXXXXXXXXXXXXXXXXXX.",
".X .XX .XX .XX .XX .XX .XX .XX .",
".X .XX .XX .XX .XX .XX .XX .XX .",
".X .XX .XX .XX .XX .XX .XX .XX .",
".X .XX .XX .XX .XX .XX .XX .XX .",
".X .XX .XX .XX .XX .XX .XX .XX .",
".X .XX .XX .XX .XX .XX .XX .XX .",
".X .XX .XX .XX .XX .XX .XX .XX .",
".X .XX .XX .XX .XX .XX .XX .XX .",
".X .XX .XX .XX .XX .XX .XX .XX .",
".X .XX .XX .XX .XX .XX .XX .XX .",
".X .XX .XX .XX .XX .XX .XX .XX .",
".X .XX .XX .XX .XX .XX .XX .XX .",
".X .XX .XX .XX .XX .XX .XX .XX .",
".XXXXXXXXXXXXXXXXXXXXXXXXXXXXXX.",
"................................",
".XXXXXXXXXXXXXXXXXXXXXXXXXXXXXX.",
".                              .",
".                              .",
".                              .",
".                              .",
".       XXXXXXXX        XXXXXXX.",
".       X......X        ........",
".       .XXXXXX.        .oo Xo .",
".       .XooXXX.        .XXXXXX.",
".       .XooXXX.        .oo Xo .",
".       .XooXXo.        ........",
".       .XXXXXX.               .",
".       .XXXXXX.               .",
".XXXXXXX.XXXXXX.XXXXXXXXXXXXXXX.",
" .............................. "
};
