/* XPM */
static char *_ddba88f85ca4364823a7cf85e742d88K2AnVebYbMC9bMiL[] = {
/* columns rows colors chars-per-pixel */
"32 32 7 1 ",
"  c None",
". c #1E1208",
"X c #3D2715",
"o c #56381E",
"O c #6C4C31",
"+ c #BF8F57",
"@ c #DBA463",
/* pixels */
"                                ",
"             ......             ",
"           ..XXXXXX..           ",
"          .XXXXXXXoXX.          ",
"          .XoXoOXoooX.          ",
"          .XoOOOXoXoX.          ",
"          .XXOOOOoXXX.          ",
"          .XXOOooooXX.          ",
"          .ooooOOoOoo.          ",
"          .XoooOOoOoX.          ",
"          .XXOooOooXX.          ",
"          .XXOooOooXX.          ",
"          .XXooOOooXX.          ",
"          .oXooOooOXo.          ",
"          .ooooOooOoo.          ",
"          .ooOOoOoOoo.          ",
"          .XoOOoOOOoX.          ",
"          .XooOoOOOoX.          ",
"          .XooOooOOoX.          ",
"          .oXOOooOoXo.          ",
"          .XXOOOOOOXX.          ",
"          .XO++++++OX.          ",
"          .O++@@@@++O.          ",
"          .O+@@++@@+O.          ",
"          .O+@+@@+@+O.          ",
"          .O+@+@@+@+O.          ",
"          .O+@@++@@+O.          ",
"          .O++@@@@++O.          ",
"          .XO++++++OX.          ",
"           ..OOOOOO..           ",
"             ......             ",
"                                "
};
