/* XPM */
static char *result[] = {
/* columns rows colors chars-per-pixel */
"32 32 4 1 ",
"  c #86C06C",
". c #306850",
"X c #071821",
"o c white",
/* pixels */
"                                ",
"                                ",
"                                ",
"                                ",
"         . .   .                ",
"          X X.X                 ",
"        .X. .X.. ..  ... .      ",
"        .XX..XX..XX..XX .       ",
"      .X.XXXXXXXXXXXXXX.X.      ",
"       XXXXXXXXXXXXXXXXXX       ",
"      .XXXXXXXXXXXXXXXXXX.      ",
"     ..XXX............XXX..     ",
"    .XXXX..XXXXXXXXXX..XXXX.    ",
"      .X..XXXXXXXXXXXX..X..     ",
"     .XX.XXXXXXXXXXXXXX.XX.     ",
"      .XXXXXXXXXXXXXXXXXX.      ",
"      .XXXXXXXXXXXXXXXXXX.      ",
"    . .XXXXXXXXXXXXXXXXXX .     ",
"     .XXXXXXXXXXXXXXXXXXXX      ",
"     .XXXXXXXXXXXXXXXXXXXX      ",
"     .XXXXXXXXXXXXXXXXXXXX.     ",
"    . .XXXXXXXXXXXXXXXXXX. .    ",
"       XXXXXXXXXXXXXXXXXX.      ",
"      . XXXXXXXXXXXXXXXX.       ",
"        .XX.X..XX..X.XX.        ",
"         ..X.XX..XX.X..         ",
"          . ..X..X   .          ",
"              .   . .           ",
"                                ",
"                                ",
"                                ",
"                                "
};
